<svg zoomAndPan="magnify" width="1188px" viewBox="0 0 1188 1109" version="1.1" style="width:1188px;height:1109px;background:#FFFFFF;" preserveAspectRatio="none" height="1109px" xmlns:xlink="http://www.w3.org/1999/xlink" xmlns="http://www.w3.org/2000/svg"><defs></defs><g><g id="cluster_Telegram Workflow"><path style="stroke:#000000;stroke-width:1.5;" fill="none" d="M298.5,6 L453.3906,6 A3.75,3.75 0 0 1 455.8906,8.5 L462.8906,28.2969 L1126.5,28.2969 A2.5,2.5 0 0 1 1129,30.7969 L1129,882.5 A2.5,2.5 0 0 1 1126.5,885 L298.5,885 A2.5,2.5 0 0 1 296,882.5 L296,8.5 A2.5,2.5 0 0 1 298.5,6"></path><line y2="28.2969" y1="28.2969" x2="462.8906" x1="296" style="stroke:#000000;stroke-width:1.5;"></line><text y="20.9951" x="300" textLength="153.8906" lengthAdjust="spacing" font-weight="bold" font-size="14" font-family="sans-serif" fill="#000000">Telegram Workflow</text></g><g id="cluster_Publishing Workflow"><path style="stroke:#000000;stroke-width:1.5;" fill="none" d="M8.5,918 L172.0244,918 A3.75,3.75 0 0 1 174.5244,920.5 L181.5244,940.2969 L1178.5,940.2969 A2.5,2.5 0 0 1 1181,942.7969 L1181,1099.5 A2.5,2.5 0 0 1 1178.5,1102 L8.5,1102 A2.5,2.5 0 0 1 6,1099.5 L6,920.5 A2.5,2.5 0 0 1 8.5,918"></path><line y2="940.2969" y1="940.2969" x2="181.5244" x1="6" style="stroke:#000000;stroke-width:1.5;"></line><text y="932.9951" x="10" textLength="162.5244" lengthAdjust="spacing" font-weight="bold" font-size="14" font-family="sans-serif" fill="#000000">Publishing Workflow</text></g><g id="elem_Python1"><rect y="41" x="527.5" width="413.2715" style="stroke:#181818;stroke-width:0.5;" ry="2.5" rx="2.5" height="36.2969" fill="#90EE90"></rect><text y="63.9951" x="537.5" textLength="393.2715" lengthAdjust="spacing" font-size="14" font-family="sans-serif" fill="#000000">Python: Listen to Telegram Channels (Ukraine &amp; Russia)</text></g><g id="elem_DeepL"><rect y="138" x="658" width="152.2002" style="stroke:#181818;stroke-width:0.5;" ry="2.5" rx="2.5" height="36.2969" fill="#D3D3D3"></rect><text y="160.9951" x="668" textLength="132.2002" lengthAdjust="spacing" font-size="14" font-family="sans-serif" fill="#000000">DeepL: Translation</text></g><g id="elem_Telegram_Ukraine"><rect y="235" x="499.5" width="218.9805" style="stroke:#181818;stroke-width:0.5;" ry="2.5" rx="2.5" height="36.2969" fill="#ADD8E6"></rect><text y="257.9951" x="509.5" textLength="198.9805" lengthAdjust="spacing" font-size="14" font-family="sans-serif" fill="#000000">Telegram: Ukraine Channels</text></g><g id="elem_Telegram_Russia"><rect y="235" x="753.5" width="210.5723" style="stroke:#181818;stroke-width:0.5;" ry="2.5" rx="2.5" height="36.2969" fill="#F08080"></rect><text y="257.9951" x="763.5" textLength="190.5723" lengthAdjust="spacing" font-size="14" font-family="sans-serif" fill="#000000">Telegram: Russia Channels</text></g><g id="elem_Ukraine_Text_Photos"><rect y="332" x="311.5" width="230.5195" style="stroke:#181818;stroke-width:0.5;" ry="2.5" rx="2.5" height="36.2969" fill="#ADD8E6"></rect><text y="354.9951" x="321.5" textLength="210.5195" lengthAdjust="spacing" font-size="14" font-family="sans-serif" fill="#000000">Ukraine News (Text + Photos)</text></g><g id="elem_Ukraine_Videos"><rect y="332" x="577.5" width="125.3418" style="stroke:#181818;stroke-width:0.5;" ry="2.5" rx="2.5" height="36.2969" fill="#FFD700"></rect><text y="354.9951" x="587.5" textLength="105.3418" lengthAdjust="spacing" font-size="14" font-family="sans-serif" fill="#000000">Ukraine Videos</text></g><g id="elem_Russia_Text_Photos"><rect y="332" x="738" width="222.1113" style="stroke:#181818;stroke-width:0.5;" ry="2.5" rx="2.5" height="36.2969" fill="#FF0000"></rect><text y="354.9951" x="748" textLength="202.1113" lengthAdjust="spacing" font-size="14" font-family="sans-serif" fill="#000000">Russia News (Text + Photos)</text></g><g id="elem_Russia_Videos"><rect y="332" x="995.5" width="116.9336" style="stroke:#181818;stroke-width:0.5;" ry="2.5" rx="2.5" height="36.2969" fill="#A9A9A9"></rect><text y="354.9951" x="1005.5" textLength="96.9336" lengthAdjust="spacing" font-size="14" font-family="sans-serif" fill="#000000">Russia Videos</text></g><g id="elem_Python2"><rect y="429" x="568.5" width="260.502" style="stroke:#181818;stroke-width:0.5;" ry="2.5" rx="2.5" height="36.2969" fill="#00FA9A"></rect><text y="451.9951" x="578.5" textLength="240.502" lengthAdjust="spacing" font-size="14" font-family="sans-serif" fill="#000000">Python: Fetch Telegram Messages</text></g><g id="elem_Process_Text_Photos"><rect y="542" x="424.5" width="176.9121" style="stroke:#181818;stroke-width:0.5;" ry="2.5" rx="2.5" height="36.2969" fill="#98FB98"></rect><text y="564.9951" x="434.5" textLength="156.9121" lengthAdjust="spacing" font-size="14" font-family="sans-serif" fill="#000000">Process Text + Photos</text></g><g id="elem_Process_Videos"><rect y="542" x="636.5" width="124.9385" style="stroke:#181818;stroke-width:0.5;" ry="2.5" rx="2.5" height="36.2969" fill="#98FB98"></rect><text y="564.9951" x="646.5" textLength="104.9385" lengthAdjust="spacing" font-size="14" font-family="sans-serif" fill="#000000">Process Videos</text></g><g id="elem_Archive"><rect y="639" x="506" width="125.8477" style="stroke:#181818;stroke-width:0.5;" ry="2.5" rx="2.5" height="36.2969" fill="#D3D3D3"></rect><text y="661.9951" x="516" textLength="105.8477" lengthAdjust="spacing" font-size="14" font-family="sans-serif" fill="#000000">Archive Locally</text></g><g id="elem_Storage"><rect y="736" x="436.5" width="264.7744" style="stroke:#181818;stroke-width:0.5;" ry="2.5" rx="2.5" height="36.2969" fill="#D3D3D3"></rect><text y="758.9951" x="446.5" textLength="244.7744" lengthAdjust="spacing" font-size="14" font-family="sans-serif" fill="#000000">Move Media Files to Storage Boxes</text></g><g id="elem_StaticSite"><rect y="833" x="412.5" width="312.5439" style="stroke:#181818;stroke-width:0.5;" ry="2.5" rx="2.5" height="36.2969" fill="#D3D3D3"></rect><text y="855.9951" x="422.5" textLength="292.5439" lengthAdjust="spacing" font-size="14" font-family="sans-serif" fill="#000000">Publish Messages as Static HTML Website</text></g><g id="elem_RSS_Ukraine_Text_Photos"><rect y="953" x="336.5" width="267.1875" style="stroke:#181818;stroke-width:0.5;" ry="2.5" rx="2.5" height="36.2969" fill="#ADD8E6"></rect><text y="975.9951" x="346.5" textLength="247.1875" lengthAdjust="spacing" font-size="14" font-family="sans-serif" fill="#000000">RSS: Ukraine News (Text + Photos)</text></g><g id="elem_RSS_Ukraine_Videos"><rect y="953" x="649" width="162.0098" style="stroke:#181818;stroke-width:0.5;" ry="2.5" rx="2.5" height="36.2969" fill="#FFD700"></rect><text y="975.9951" x="659" textLength="142.0098" lengthAdjust="spacing" font-size="14" font-family="sans-serif" fill="#000000">RSS: Ukraine Videos</text></g><g id="elem_RSS_Russia_Text_Photos"><rect y="953" x="42.5" width="258.7793" style="stroke:#181818;stroke-width:0.5;" ry="2.5" rx="2.5" height="36.2969" fill="#FF0000"></rect><text y="975.9951" x="52.5" textLength="238.7793" lengthAdjust="spacing" font-size="14" font-family="sans-serif" fill="#000000">RSS: Russia News (Text + Photos)</text></g><g id="elem_RSS_Russia_Videos"><rect y="953" x="846" width="153.6016" style="stroke:#181818;stroke-width:0.5;" ry="2.5" rx="2.5" height="36.2969" fill="#A9A9A9"></rect><text y="975.9951" x="856" textLength="133.6016" lengthAdjust="spacing" font-size="14" font-family="sans-serif" fill="#000000">RSS: Russia Videos</text></g><g id="elem_Baserow"><rect y="1050" x="22.5" width="208.6855" style="stroke:#181818;stroke-width:0.5;" ry="2.5" rx="2.5" height="36.2969" fill="#D3D3D3"></rect><text y="1072.9951" x="32.5" textLength="188.6855" lengthAdjust="spacing" font-size="14" font-family="sans-serif" fill="#000000">Baserow: Search Database</text></g><g id="elem_SocialMedia"><rect y="1050" x="267" width="309.9873" style="stroke:#181818;stroke-width:0.5;" ry="2.5" rx="2.5" height="36.2969" fill="#D3D3D3"></rect><text y="1072.9951" x="277" textLength="289.9873" lengthAdjust="spacing" font-size="14" font-family="sans-serif" fill="#000000">Bluesky, Mastodon: Publish Titles + Links</text></g><g id="elem_ChatApps"><rect y="1050" x="612.5" width="270.6807" style="stroke:#181818;stroke-width:0.5;" ry="2.5" rx="2.5" height="36.2969" fill="#D3D3D3"></rect><text y="1072.9951" x="622.5" textLength="250.6807" lengthAdjust="spacing" font-size="14" font-family="sans-serif" fill="#000000">Discord, Matrix: Publish Video Posts</text></g><g id="elem_MainWebsite"><rect y="1050" x="919" width="245.8389" style="stroke:#181818;stroke-width:0.5;" ry="2.5" rx="2.5" height="36.2969" fill="#D3D3D3"></rect><text y="1072.9951" x="929" textLength="225.8389" lengthAdjust="spacing" font-size="14" font-family="sans-serif" fill="#000000">Main Website: Display RSS Feed</text></g><g id="link_Python1_DeepL"><path style="stroke:#181818;stroke-width:1;" id="Python1-to-DeepL" fill="none" d="M734,77.42 C734,94.57 734,114.58 734,131.69"></path><polygon style="stroke:#181818;stroke-width:1;" points="734,137.69,738,128.69,734,132.69,730,128.69,734,137.69" fill="#181818"></polygon></g><g id="link_DeepL_Telegram_Ukraine"><path style="stroke:#181818;stroke-width:1;" id="DeepL-to-Telegram_Ukraine" fill="none" d="M711.36,174.2 C688.71,191.42 658.8368,214.1193 636.2468,231.2893"></path><polygon style="stroke:#181818;stroke-width:1;" points="631.47,234.92,641.0557,232.6585,635.4507,231.8944,636.2147,226.2894,631.47,234.92" fill="#181818"></polygon></g><g id="link_DeepL_Telegram_Russia"><path style="stroke:#181818;stroke-width:1;" id="DeepL-to-Telegram_Russia" fill="none" d="M756.64,174.2 C779.29,191.42 809.1632,214.1193 831.7532,231.2893"></path><polygon style="stroke:#181818;stroke-width:1;" points="836.53,234.92,831.7853,226.2894,832.5493,231.8944,826.9443,232.6585,836.53,234.92" fill="#181818"></polygon></g><g id="link_Telegram_Ukraine_Ukraine_Text_Photos"><path style="stroke:#181818;stroke-width:1;" id="Telegram_Ukraine-to-Ukraine_Text_Photos" fill="none" d="M576.04,271.2 C543.06,288.42 497.9292,311.974 465.0292,329.144"></path><polygon style="stroke:#181818;stroke-width:1;" points="459.71,331.92,469.5395,331.3021,464.1427,329.6067,465.8381,324.2099,459.71,331.92" fill="#181818"></polygon></g><g id="link_Telegram_Ukraine_Ukraine_Videos"><path style="stroke:#181818;stroke-width:1;" id="Telegram_Ukraine-to-Ukraine_Videos" fill="none" d="M614.69,271.42 C620.28,288.57 626.9097,308.8757 632.4897,325.9857"></path><polygon style="stroke:#181818;stroke-width:1;" points="634.35,331.69,635.3624,321.8933,632.7997,326.9364,627.7566,324.3737,634.35,331.69" fill="#181818"></polygon></g><g id="link_Telegram_Russia_Russia_Text_Photos"><path style="stroke:#181818;stroke-width:1;" id="Telegram_Russia-to-Russia_Text_Photos" fill="none" d="M857.17,271.42 C855.36,288.57 853.2477,308.6129 851.4477,325.7229"></path><polygon style="stroke:#181818;stroke-width:1;" points="850.82,331.69,855.7397,323.1579,851.3431,326.7174,847.7836,322.3209,850.82,331.69" fill="#181818"></polygon></g><g id="link_Telegram_Russia_Russia_Videos"><path style="stroke:#181818;stroke-width:1;" id="Telegram_Russia-to-Russia_Videos" fill="none" d="M894.31,271.2 C929.65,288.42 978.3059,312.1226 1013.5559,329.2926"></path><polygon style="stroke:#181818;stroke-width:1;" points="1018.95,331.92,1012.6104,324.3828,1014.4549,329.7305,1009.1072,331.5749,1018.95,331.92" fill="#181818"></polygon></g><g id="link_Ukraine_Text_Photos_Python2"><path style="stroke:#181818;stroke-width:1;" id="Ukraine_Text_Photos-to-Python2" fill="none" d="M475.94,368.09 C525.19,385.3 595.0556,409.6914 644.3256,426.9014"></path><polygon style="stroke:#181818;stroke-width:1;" points="649.99,428.88,642.8125,422.1359,645.2697,427.2312,640.1744,429.6884,649.99,428.88" fill="#181818"></polygon></g><g id="link_Ukraine_Videos_Python2"><path style="stroke:#181818;stroke-width:1;" id="Ukraine_Videos-to-Python2" fill="none" d="M650.82,368.42 C661.47,385.57 674.4658,406.4822 685.0858,423.5922"></path><polygon style="stroke:#181818;stroke-width:1;" points="688.25,428.69,686.9023,418.9338,685.6132,424.4418,680.1052,423.1527,688.25,428.69" fill="#181818"></polygon></g><g id="link_Russia_Text_Photos_Python2"><path style="stroke:#181818;stroke-width:1;" id="Russia_Text_Photos-to-Python2" fill="none" d="M821.84,368.2 C794.65,385.42 758.1494,408.5405 731.0294,425.7105"></path><polygon style="stroke:#181818;stroke-width:1;" points="725.96,428.92,735.7038,427.4853,730.1845,426.2454,731.4245,420.7261,725.96,428.92" fill="#181818"></polygon></g><g id="link_Russia_Videos_Python2"><path style="stroke:#181818;stroke-width:1;" id="Russia_Videos-to-Python2" fill="none" d="M995.38,366.69 C931.28,383.84 834.6861,409.6892 768.6061,427.3692"></path><polygon style="stroke:#181818;stroke-width:1;" points="762.81,428.92,772.538,430.4579,767.6401,427.6277,770.4703,422.7297,762.81,428.92" fill="#181818"></polygon></g><g id="link_Python2_Process_Text_Photos"><path style="stroke:#181818;stroke-width:1;" id="Python2-to-Process_Text_Photos" fill="none" d="M636.34,465.01 C615.21,472.36 592.14,482.26 573,495 C553.86,507.74 540.1046,522.9846 529.0246,537.2246"></path><polygon style="stroke:#181818;stroke-width:1;" points="525.34,541.96,534.0238,537.3133,528.4105,538.0138,527.7099,532.4005,525.34,541.96" fill="#181818"></polygon><text y="508.0669" x="574" textLength="116.6509" lengthAdjust="spacing" font-size="13" font-family="sans-serif" fill="#000000">For Text + Photos</text></g><g id="link_Python2_Process_Videos"><path style="stroke:#181818;stroke-width:1;" id="Python2-to-Process_Videos" fill="none" d="M699,465.34 C699,486.2 699,514.98 699,535.78"></path><polygon style="stroke:#181818;stroke-width:1;" points="699,541.78,703,532.78,699,536.78,695,532.78,699,541.78" fill="#181818"></polygon><text y="508.0669" x="700" textLength="68.3896" lengthAdjust="spacing" font-size="13" font-family="sans-serif" fill="#000000">For Videos</text></g><g id="link_Process_Text_Photos_Archive"><path style="stroke:#181818;stroke-width:1;" id="Process_Text_Photos-to-Archive" fill="none" d="M523.27,578.42 C533.38,595.57 545.6644,616.4104 555.7444,633.5204"></path><polygon style="stroke:#181818;stroke-width:1;" points="558.79,638.69,557.6681,628.9053,556.252,634.382,550.7753,632.966,558.79,638.69" fill="#181818"></polygon></g><g id="link_Archive_Storage"><path style="stroke:#181818;stroke-width:1;" id="Archive-to-Storage" fill="none" d="M569,675.42 C569,692.57 569,712.58 569,729.69"></path><polygon style="stroke:#181818;stroke-width:1;" points="569,735.69,573,726.69,569,730.69,565,726.69,569,735.69" fill="#181818"></polygon></g><g id="link_Storage_StaticSite"><path style="stroke:#181818;stroke-width:1;" id="Storage-to-StaticSite" fill="none" d="M569,772.42 C569,789.57 569,809.58 569,826.69"></path><polygon style="stroke:#181818;stroke-width:1;" points="569,832.69,573,823.69,569,827.69,565,823.69,569,832.69" fill="#181818"></polygon></g><g id="link_Process_Videos_Archive"><path style="stroke:#181818;stroke-width:1;" id="Process_Videos-to-Archive" fill="none" d="M675.46,578.2 C651.9,595.42 620.7146,618.2103 597.2146,635.3803"></path><polygon style="stroke:#181818;stroke-width:1;" points="592.37,638.92,601.9968,636.8402,596.4072,635.9703,597.2772,630.3807,592.37,638.92" fill="#181818"></polygon></g><g id="link_StaticSite_RSS_Ukraine_Text_Photos"><path style="stroke:#181818;stroke-width:1;" id="StaticSite-to-RSS_Ukraine_Text_Photos" fill="none" d="M554.6,869.16 C535.83,891.53 507.0468,925.8438 488.2668,948.2238"></path><polygon style="stroke:#181818;stroke-width:1;" points="484.41,952.82,493.2594,948.497,487.624,948.9899,487.1311,943.3545,484.41,952.82" fill="#181818"></polygon></g><g id="link_StaticSite_RSS_Ukraine_Videos"><path style="stroke:#181818;stroke-width:1;" id="StaticSite-to-RSS_Ukraine_Videos" fill="none" d="M592.41,869.16 C622.94,891.53 671.1804,926.8935 701.7204,949.2735"></path><polygon style="stroke:#181818;stroke-width:1;" points="706.56,952.82,701.6649,944.2738,702.527,949.8646,696.9362,950.7266,706.56,952.82" fill="#181818"></polygon></g><g id="link_StaticSite_RSS_Russia_Text_Photos"><path style="stroke:#181818;stroke-width:1;" id="StaticSite-to-RSS_Russia_Text_Photos" fill="none" d="M480.14,869.01 C431.95,879.13 371.65,893.26 319,910 C280.78,922.15 244.0042,937.4361 214.6442,950.4661"></path><polygon style="stroke:#181818;stroke-width:1;" points="209.16,952.9,219.0089,952.9053,213.7301,950.8718,215.7637,945.5931,209.16,952.9" fill="#181818"></polygon></g><g id="link_StaticSite_RSS_Russia_Videos"><path style="stroke:#181818;stroke-width:1;" id="StaticSite-to-RSS_Russia_Videos" fill="none" d="M685.56,869.03 C731.37,878.01 783.73,891.19 829,910 C855.46,920.99 877.912,935.7677 896.222,949.2777"></path><polygon style="stroke:#181818;stroke-width:1;" points="901.05,952.84,896.1829,944.2778,897.0267,949.8714,891.4331,950.7152,901.05,952.84" fill="#181818"></polygon></g><g id="link_RSS_Ukraine_Text_Photos_Baserow"><path style="stroke:#181818;stroke-width:1;" id="RSS_Ukraine_Text_Photos-to-Baserow" fill="none" d="M408.28,989.09 C346.08,1006.32 256.4225,1031.1592 194.2925,1048.3592"></path><polygon style="stroke:#181818;stroke-width:1;" points="188.51,1049.96,198.251,1051.4138,193.3288,1048.626,196.1165,1043.7038,188.51,1049.96" fill="#181818"></polygon></g><g id="link_RSS_Ukraine_Text_Photos_SocialMedia"><path style="stroke:#181818;stroke-width:1;" id="RSS_Ukraine_Text_Photos-to-SocialMedia" fill="none" d="M461.2,989.42 C452.54,1006.57 442.0945,1027.2241 433.4545,1044.3341"></path><polygon style="stroke:#181818;stroke-width:1;" points="430.75,1049.69,438.3774,1043.4592,433.0038,1045.2268,431.2362,1039.8532,430.75,1049.69" fill="#181818"></polygon></g><g id="link_RSS_Ukraine_Videos_ChatApps"><path style="stroke:#181818;stroke-width:1;" id="RSS_Ukraine_Videos-to-ChatApps" fill="none" d="M733.3,989.42 C736.55,1006.57 740.3637,1026.6848 743.6037,1043.7948"></path><polygon style="stroke:#181818;stroke-width:1;" points="744.72,1049.69,746.9756,1040.1029,743.7897,1044.7773,739.1153,1041.5914,744.72,1049.69" fill="#181818"></polygon></g><g id="link_RSS_Ukraine_Videos_MainWebsite"><path style="stroke:#181818;stroke-width:1;" id="RSS_Ukraine_Videos-to-MainWebsite" fill="none" d="M786.14,989.09 C842.72,1006.32 923.8,1031.0129 980.31,1048.2129"></path><polygon style="stroke:#181818;stroke-width:1;" points="986.05,1049.96,978.6047,1043.5127,981.2667,1048.5041,976.2753,1051.166,986.05,1049.96" fill="#181818"></polygon></g><g id="link_RSS_Russia_Text_Photos_Baserow"><path style="stroke:#181818;stroke-width:1;" id="RSS_Russia_Text_Photos-to-Baserow" fill="none" d="M163.75,989.42 C155.63,1006.57 145.8673,1027.157 137.7673,1044.267"></path><polygon style="stroke:#181818;stroke-width:1;" points="135.2,1049.69,142.6663,1043.267,137.3394,1045.1708,135.4356,1039.844,135.2,1049.69" fill="#181818"></polygon></g><g id="link_RSS_Russia_Text_Photos_SocialMedia"><path style="stroke:#181818;stroke-width:1;" id="RSS_Russia_Text_Photos-to-SocialMedia" fill="none" d="M216.98,989.09 C262.25,1006.3 326.0613,1030.5387 371.3513,1047.7487"></path><polygon style="stroke:#181818;stroke-width:1;" points="376.96,1049.88,369.9678,1042.9439,372.2861,1048.1039,367.1261,1050.4222,376.96,1049.88" fill="#181818"></polygon></g><g id="link_RSS_Russia_Videos_ChatApps"><path style="stroke:#181818;stroke-width:1;" id="RSS_Russia_Videos-to-ChatApps" fill="none" d="M891.31,989.2 C859.59,1006.42 816.3632,1029.8875 784.7332,1047.0575"></path><polygon style="stroke:#181818;stroke-width:1;" points="779.46,1049.92,789.2781,1049.1417,783.8543,1047.5346,785.4614,1042.1108,779.46,1049.92" fill="#181818"></polygon></g><g id="link_RSS_Russia_Videos_MainWebsite"><path style="stroke:#181818;stroke-width:1;" id="RSS_Russia_Videos-to-MainWebsite" fill="none" d="M944.55,989.2 C966.12,1006.42 994.4107,1029.0069 1015.9207,1046.1769"></path><polygon style="stroke:#181818;stroke-width:1;" points="1020.61,1049.92,1016.0715,1041.1792,1016.7023,1046.8007,1011.0807,1047.4315,1020.61,1049.92" fill="#181818"></polygon></g></g></svg>