<svg xmlns:xlink="http://www.w3.org/1999/xlink" xmlns="http://www.w3.org/2000/svg" version="1.1" viewBox="0 0 4453 1291" height="1291px" width="4453px">
    
    <title>smat full</title>
    <desc>Created with Sketch.</desc>
    <g fill-rule="evenodd" fill="none" stroke-width="1" stroke="none" id="v3">
        <g fill-rule="nonzero" id="smat-full">
            <path fill="#6610F2" id="Shape" d="M639.48,11.41 C286.31,11.41 0,297.71 0,650.89 C0,1004.07 286.31,1290.34 639.48,1290.34 C992.65,1290.34 1278.96,1004.03 1278.96,650.86 C1278.96,297.69 992.65,11.41 639.48,11.41 Z M920.37,1049.02 C857.95,1095.52 769.59,1119.11 657.77,1119.11 C585.87,1119.11 516.91,1107.28 452.77,1083.95 C386.37,1059.81 333.37,1027.59 295.2,988.18 L255.37,946.97 L354.15,815.27 L408.92,868.27 C433.34,891.89 467.92,912.44 511.63,929.33 C555.98,946.46 605.14,955.15 657.75,955.15 C752.86,955.15 798.75,936.33 820.48,920.54 C846.48,901.63 858.1,877.88 858.1,843.46 C858.1,814.03 849.37,801.9 842.8,795.33 C826.94,779.47 807.74,768.05 784.1,760.41 C753.24,750.41 709.1,739.87 652.78,729 C586.44,717 533.26,704.31 491.02,690.21 C441.51,673.71 399.1,646.7 365.02,609.93 C326.78,568.71 307.37,513.34 307.37,445.23 C307.37,367.57 340.8,298.85 404.04,246.46 C464.45,196.46 550.3,171.12 659.25,171.12 C716.064687,171.216824 772.544489,179.822275 826.81,196.65 C883.81,214.24 931.31,238.58 968.09,269 L1017.46,309.85 L918.74,441.46 L864.6,398.14 C840.25,378.67 810,363.24 774.69,352.3 C737.290569,340.805428 698.375916,334.997221 659.25,335.07 C591.9,335.07 540.82,347.14 511.51,369.92 C485.88,389.86 474.45,413.08 474.45,445.23 C474.45,481.61 486.91,494.32 491.01,498.51 C507.37,515.2 527.42,527.2 552.37,535.27 C584.62,545.72 628.72,555.96 683.5,565.73 C751.41,579.08 803.5,592 843.85,605.47 C891.62,621.38 932.85,647.47 966.37,682.99 C1004.37,723.28 1023.59001,777.25 1023.59001,843.45 C1023.61,927.6 987.89,998.68 920.37,1049.02 Z"></path>
            <path fill="#FFFFFF" id="Path" d="M843.87,605.47 C803.49,592 751.43,579.08 683.52,565.73 C628.74,555.96 584.64,545.73 552.39,535.27 C527.39,527.2 507.39,515.2 491.05,498.51 C486.95,494.32 474.49,481.61 474.49,445.23 C474.49,413.08 485.92,389.86 511.55,369.92 C540.86,347.14 591.94,335.07 659.29,335.07 C698.417942,335.010179 737.33264,340.831877 774.73,352.34 C810.04,363.28 840.29,378.71 864.64,398.18 L918.78,441.5 L1017.5,309.89 L968.13,269.04 C931.35,238.62 883.84,214.28 826.85,196.69 C772.584489,179.862275 716.104687,171.256824 659.29,171.16 C550.34,171.16 464.49,196.5 404.08,246.5 C340.84,298.85 307.37,367.57 307.37,445.23 C307.37,513.29 326.74,568.71 364.96,609.92 C399.04,646.69 441.45,673.7 490.96,690.2 C533.2,704.3 586.38,717.03 652.72,728.99 C709.01,739.86 753.18,750.42 784.04,760.4 C807.68,768.04 826.88,779.46 842.74,795.32 C849.31,801.89 858.04,814.02 858.04,843.45 C858.04,877.87 846.45,901.62 820.42,920.53 C798.68,936.32 752.8,955.14 657.69,955.14 C605.08,955.14 555.92,946.45 511.57,929.32 C467.84,912.43 433.28,891.88 408.86,868.26 L354.09,815.26 L255.37,946.97 L295.22,988.18 C333.35,1027.59 386.36,1059.81 452.79,1083.95 C516.89,1107.28 585.85,1119.11 657.79,1119.11 C769.61,1119.11 857.97,1095.52 920.39,1049.02 C987.95,998.68 1023.67,927.6 1023.67,843.45 C1023.67,777.25 1004.43,723.28 966.45,682.99 C932.86,647.48 891.64,621.34 843.87,605.47 Z"></path>
            <path fill="#FFFFFF" id="Path" d="M2718.74,278.03 C2650.38,207.09 2556.89,171.12 2440.91,171.12 C2340.6,171.12 2254.2,197.24 2184.13,248.72 C2156.86609,268.64713 2132.37456,292.112998 2111.3,318.5 C2092.51049,291.176736 2069.59446,266.934933 2043.37,246.64 C1978.67,196.53 1896.78,171.12 1799.99,171.12 C1705.85,171.12 1623.62,194.34 1555.59,240.12 C1549.91667,243.94 1544.37333,247.88 1538.96,251.94 L1538.96,175.78 L1373.46,175.78 L1373.46,1114.44 L1538.98,1114.44 L1538.98,610.12 C1538.98,524.44 1561.98,458.35 1609.36,408.12 C1655.64,359 1718.51,335.12 1801.56,335.12 C1871.87,335.12 1923.45,353.83 1959.25,392.26 C1995.82,431.57 2014.36,492.32 2014.36,572.82 L2014.36,1114.44 L2179.88,1114.44 L2179.88,610.12 C2179.88,524.44 2202.88,458.35 2250.25,408.12 C2296.56,358.99 2359.42,335.12 2442.46,335.12 C2512.78,335.12 2564.36,353.83 2600.14,392.26 C2636.71,431.57 2655.26,492.32 2655.26,572.82 L2655.26,1114.44 L2820.78,1114.44 L2820.78,572.77 C2820.78,447.45 2786.46,348.28 2718.78,278.03 L2718.74,278.03 Z"></path>
            <path fill="#FFFFFF" id="Shape" d="M3619.58,262.63 C3557.58,201.91 3469.78,171.118631 3358.69,171.118631 C3291.35943,170.968971 3224.58552,183.314669 3161.76,207.53 C3098.54,231.99 3043.82,266.46 2999.14,309.95 L2950.37,357.47 L3066.37,473.55 L3113.85,428.78 C3143.85,400.51 3180.48,377.55 3222.72,360.56 C3264.77,343.66 3311.03,335.07 3360.2,335.07 C3425.49,335.07 3473.71,350.01 3503.51,379.44 C3533.11,408.72 3548.11,456.44 3548.11,521.44 L3548.11,542.9 L3310.46,542.9 C3191.82,542.9 3105.76,568.01 3047.34,619.68 C2987.42,672.75 2957.03,742.28 2957.03,826.34 C2957.03,914.41 2991.68,989.19 3057.23,1042.54 C3119.57,1093.33 3204.23,1119.1 3308.91,1119.1 C3394.42,1119.1 3469.55,1100.22 3532.26,1062.99 C3537.66,1059.77 3542.95667,1056.43667 3548.15,1052.99 L3548.15,1114.41 L3713.67,1114.41 L3713.67,519.89 C3713.67,410.31 3682.02,323.76 3619.6,262.64 L3619.58,262.63 Z M3159.11,741.63 C3187.21,718.87 3239.01,706.83 3308.91,706.83 L3548.15,706.83 L3548.15,803.44 C3502.76,906.83 3426.43,955.1 3308.91,955.1 C3244.91,955.1 3196.14,942.18 3163.91,916.68 C3135.7,894.38 3122.55999,865.17 3122.55999,824.74 C3122.55,787.78 3133.83,762.16 3159.11,741.67 L3159.11,741.63 Z"></path>
            <path fill="#FFFFFF" id="Path" d="M4338.55,878.94 L4291.08,923.64 C4268.24,945.12 4240.36,955.14 4203.36,955.14 C4151.72,955.14 4135.13,937.3 4129.65,931.43 C4113.74,914.34 4105.65,885.78 4105.65,846.56 L4105.65,339.76 L4377.87,339.76 L4377.87,175.76 L4105.67,175.76 L4105.67,0 L3940.15,0 L3940.15,175.78 L3784.59,175.78 L3784.59,339.78 L3940.15,339.78 L3940.15,854.34 C3940.15,931.92 3963.3,995.83 4008.98,1044.34 C4055.73,1093.99 4120.59,1119.15 4201.81,1119.15 C4239.18608,1119.15 4276.3005,1112.9172 4311.62,1100.69 C4350.33,1087.32 4382.67,1067.09 4407.75,1040.55 L4452.63,993.06 L4338.55,878.94 Z"></path>
        </g>
    </g>
</svg>